P2
5 5
255
0 0 0 0 0 0 0 99 0 0 0 99 99 99 0 0 0 
99 0 0 0 0 0 0 0 