P2
5 5
255
255 255 255 255 255 255 255 99 255 255 255 99 99 99 255 255 255 
99 255 255 255 255 255 255 255 